<?xml version="1.0" encoding="utf-8"?>
<!-- Generator: Adobe Illustrator 23.0.2, SVG Export Plug-In . SVG Version: 6.00 Build 0)  -->
<svg version="1.1" id="Capa_1" xmlns="http://www.w3.org/2000/svg" xmlns:xlink="http://www.w3.org/1999/xlink" x="0px" y="0px"
	 viewBox="0 0 53.2 43.5" style="enable-background:new 0 0 53.2 43.5;" xml:space="preserve">
<style type="text/css">
	.st0{fill:#26A744;}
</style>
<g>
	<path class="st0" d="M49.5,22c0.2,0.2,0.2,0.4,0.3,0.6c0,0.3,0,0.5-0.2,0.7l-2,2.4c-0.2,0.2-0.4,0.3-0.6,0.3
		c-0.3,0-0.5-0.1-0.7-0.2L27.8,10.6c-0.2-0.2-0.4-0.2-0.6-0.2c-0.2,0-0.4,0.1-0.6,0.2L8,25.8c-0.2,0.2-0.4,0.2-0.7,0.2
		c-0.3,0-0.5-0.1-0.6-0.3l-2-2.4c-0.2-0.2-0.2-0.4-0.2-0.7c0-0.3,0.1-0.5,0.3-0.6l20-16.5c0.7-0.6,1.5-0.9,2.4-0.9
		c0.9,0,1.7,0.3,2.4,0.9l7,5.8V5.6c0-0.3,0.1-0.5,0.3-0.7c0.2-0.2,0.4-0.3,0.7-0.3h4.4c0.3,0,0.5,0.1,0.7,0.3
		c0.2,0.2,0.3,0.4,0.3,0.7v11L49.5,22z M42.9,26.8c0-0.3-0.1-0.6-0.3-0.8L27.8,13.8c-0.2-0.2-0.4-0.2-0.6-0.2
		c-0.2,0-0.4,0.1-0.6,0.2L11.7,26c-0.2,0.2-0.3,0.5-0.3,0.8V38c0,0.5,0.2,1,0.6,1.3c0.4,0.4,0.8,0.6,1.3,0.6h9.1
		c0.3,0,0.5-0.1,0.7-0.3c0.2-0.2,0.3-0.4,0.3-0.7v-8.8c0-0.3,0.1-0.5,0.3-0.7s0.4-0.3,0.7-0.3H30c0.3,0,0.5,0.1,0.7,0.3
		s0.3,0.4,0.3,0.7V39c0,0.3,0.1,0.5,0.3,0.7c0.2,0.2,0.4,0.3,0.7,0.3H41c0.5,0,1-0.2,1.3-0.6s0.6-0.8,0.6-1.3V26.8z"/>
</g>
</svg>
