<?xml version="1.0" encoding="utf-8"?>
<!-- Generator: Adobe Illustrator 23.0.2, SVG Export Plug-In . SVG Version: 6.00 Build 0)  -->
<svg version="1.1" id="Capa_1" xmlns="http://www.w3.org/2000/svg" xmlns:xlink="http://www.w3.org/1999/xlink" x="0px" y="0px"
	 viewBox="0 0 53.2 43.5" style="enable-background:new 0 0 53.2 43.5;" xml:space="preserve">
<style type="text/css">
	.st0{fill:#26A744;}
</style>
<g>
	<path class="st0" d="M45.4,14.4c0.9,0.7,1.4,1.7,1.4,3v0.8l-7.6,5.5V9.2H14v14.6l-7.6-5.5v-0.8c0-1.3,0.5-2.3,1.4-3l2.4-1.8V9.2
		c0-1.1,0.4-1.9,1.1-2.7C12,5.7,12.9,5.4,14,5.4h6.1l1.4-1.1c1.1-0.8,1.9-1.4,2.5-1.7c1-0.6,1.8-0.9,2.5-0.9c0.7,0,1.5,0.3,2.5,0.9
		c0.6,0.4,1.5,0.9,2.5,1.7l1.4,1.1h6.1c1.1,0,1.9,0.4,2.7,1.1S43,8.1,43,9.2v3.5C43.7,13.2,44.5,13.8,45.4,14.4z M26.6,34.5
		c1.4,0,2.6-0.4,3.7-1.2l16.5-11.9v16.8c0,1.1-0.4,1.9-1.1,2.7c-0.7,0.7-1.6,1.1-2.7,1.1H10.2c-1.1,0-1.9-0.4-2.7-1.1
		c-0.7-0.7-1.1-1.6-1.1-2.7V21.4l16.5,11.9C24,34.1,25.2,34.5,26.6,34.5z M20.3,18.6c-0.4,0-0.7-0.1-0.9-0.4
		C19.1,18,19,17.7,19,17.4v-1.3c0-0.4,0.1-0.7,0.4-0.9c0.2-0.2,0.5-0.4,0.9-0.4h12.6c0.4,0,0.7,0.1,0.9,0.4c0.2,0.2,0.4,0.5,0.4,0.9
		v1.3c0,0.4-0.1,0.7-0.4,0.9c-0.2,0.2-0.5,0.4-0.9,0.4H20.3z M19,24.9v-1.3c0-0.4,0.1-0.7,0.4-0.9c0.2-0.2,0.5-0.4,0.9-0.4h12.6
		c0.4,0,0.7,0.1,0.9,0.4c0.2,0.2,0.4,0.5,0.4,0.9v1.3c0,0.4-0.1,0.7-0.4,0.9c-0.2,0.2-0.5,0.4-0.9,0.4H20.3c-0.4,0-0.7-0.1-0.9-0.4
		C19.1,25.6,19,25.3,19,24.9z"/>
</g>
</svg>
