<?xml version="1.0" encoding="utf-8"?>
<!-- Generator: Adobe Illustrator 18.0.0, SVG Export Plug-In . SVG Version: 6.00 Build 0)  -->
<!DOCTYPE svg PUBLIC "-//W3C//DTD SVG 1.1//EN" "http://www.w3.org/Graphics/SVG/1.1/DTD/svg11.dtd">
<svg version="1.1" id="Capa_1" xmlns="http://www.w3.org/2000/svg" xmlns:xlink="http://www.w3.org/1999/xlink" x="0px" y="0px"
	 viewBox="480 0 800 800" enable-background="new 480 0 800 800" xml:space="preserve">
<g>
	<path fill="#BC063F" d="M1143.8,800H616.2C539.6,800,480,737.6,480,663.8V136.2C480,62.4,542.4,0,616.2,0h527.7
		c76.5,0,136.1,62.4,136.1,136.2v527.7C1280,740.4,1220.4,800,1143.8,800z"/>
	<path fill="#FFFFFF" d="M587.8,482.3h173v207.1h-173V482.3z"/>
	<path fill="#FFFFFF" d="M1002,482.3h173v207.1h-173V482.3z"/>
	<path fill="#FFFFFF" d="M707,244h-68.1v85.1h-51.1l85.1,119.1l87.9-119.1H707V244L707,244z"/>
	<path fill="#FFFFFF" d="M1175,326.2h-51v-85.1h-68.1v85.1H1002l87.9,119.1L1175,326.2z"/>
	<path fill="#FFFFFF" d="M880,204.3c28.4,0,51.1-22.7,51.1-51.1s-22.7-51.1-51.1-51.1s-51.1,22.7-51.1,51.1S851.6,204.3,880,204.3z"
		/>
	<path fill="#FFFFFF" d="M811.9,448.2h34v68.1H914v-68.1h34V278c0-36.9-31.2-70.9-68.1-70.9s-68.1,31.2-68.1,70.9L811.9,448.2
		L811.9,448.2z"/>
	<path fill="#FFFFFF" d="M794.9,550.4h170.2v139H794.9V550.4z"/>
</g>
</svg>
