<?xml version="1.0" encoding="utf-8"?>
<!-- Generator: Adobe Illustrator 18.0.0, SVG Export Plug-In . SVG Version: 6.00 Build 0)  -->
<!DOCTYPE svg PUBLIC "-//W3C//DTD SVG 1.1//EN" "http://www.w3.org/Graphics/SVG/1.1/DTD/svg11.dtd">
<svg version="1.1" id="Capa_1" xmlns="http://www.w3.org/2000/svg" xmlns:xlink="http://www.w3.org/1999/xlink" x="0px" y="0px"
	 viewBox="240 0 800 800" enable-background="new 240 0 800 800" xml:space="preserve">
<path fill="#B21352" d="M903.8,800H376.2C299.6,800,240,737.6,240,663.8V136.2C240,62.4,302.4,0,376.2,0h527.7
	C980.4,0,1040,62.4,1040,136.2v527.7C1040,740.4,980.4,800,903.8,800z"/>
<g>
	<g>
		<g>
			<g>
				<path fill="#FFFFFF" d="M845.1,422.2h-44.6c4.5,12.4,7,25.9,7,39.9v168.6c0,5.8-1,11.4-2.9,16.7h73.7c27.5,0,50-22.4,50-50
					v-91.9C928.4,459.6,891,422.2,845.1,422.2z"/>
			</g>
		</g>
		<g>
			<g>
				<path fill="#FFFFFF" d="M472.5,462.1c0-14,2.5-27.4,7-39.9h-44.6c-45.9,0-83.3,37.3-83.3,83.3v91.9c0,27.5,22.4,50,50,50h73.7
					c-1.8-5.2-2.9-10.8-2.9-16.7V462.1z"/>
			</g>
		</g>
		<g>
			<g>
				<path fill="#FFFFFF" d="M691,378.8H589c-45.9,0-83.3,37.3-83.3,83.3v168.6c0,9.2,7.5,16.7,16.7,16.7h235.2
					c9.2,0,16.7-7.5,16.7-16.7V462.1C774.2,416.2,736.9,378.8,691,378.8z"/>
			</g>
		</g>
		<g>
			<g>
				<path fill="#FFFFFF" d="M640,158.1c-55.2,0-100.1,44.9-100.1,100.1c0,37.4,20.7,70.2,51.2,87.3c14.5,8.1,31.2,12.8,48.9,12.8
					c17.8,0,34.5-4.7,48.9-12.8c30.5-17.2,51.2-49.9,51.2-87.3C740.1,203,695.2,158.1,640,158.1z"/>
			</g>
		</g>
		<g>
			<g>
				<path fill="#FFFFFF" d="M464.2,251.4c-41.3,0-74.9,33.6-74.9,74.9s33.6,74.9,74.9,74.9c10.5,0,20.4-2.2,29.5-6.1
					c15.7-6.7,28.6-18.7,36.6-33.6c5.6-10.5,8.8-22.5,8.8-35.2C539.1,285,505.5,251.4,464.2,251.4z"/>
			</g>
		</g>
		<g>
			<g>
				<path fill="#FFFFFF" d="M815.8,251.4c-41.3,0-74.9,33.6-74.9,74.9c0,12.7,3.2,24.7,8.8,35.2c8,15,20.9,26.9,36.6,33.6
					c9.1,3.9,19,6.1,29.5,6.1c41.3,0,74.9-33.6,74.9-74.9S857.1,251.4,815.8,251.4z"/>
			</g>
		</g>
	</g>
</g>
</svg>
