<?xml version="1.0" encoding="utf-8"?>
<!-- Generator: Adobe Illustrator 18.0.0, SVG Export Plug-In . SVG Version: 6.00 Build 0)  -->
<!DOCTYPE svg PUBLIC "-//W3C//DTD SVG 1.1//EN" "http://www.w3.org/Graphics/SVG/1.1/DTD/svg11.dtd">
<svg version="1.1" id="Capa_1" xmlns="http://www.w3.org/2000/svg" xmlns:xlink="http://www.w3.org/1999/xlink" x="0px" y="0px"
	 viewBox="480 0 800 800" enable-background="new 480 0 800 800" xml:space="preserve">
<g>
	<path fill="#F2AB0C" d="M1143.8,800H616.2C539.6,800,480,737.6,480,663.8V136.2C480,62.4,542.4,0,616.2,0h527.7
		c76.5,0,136.1,62.4,136.1,136.2v527.7C1280,740.4,1220.4,800,1143.8,800z"/>
	<g>
		<g>
			<path fill="#FFFFFF" d="M756.7,441.8c16.5,0,32.5-1.1,47.7-3.1V272.9c-15.1-2-31.1-3.1-47.7-3.1c-94.5,0-171.1,34.7-171.1,77.6
				v16.8C585.6,407.1,662.2,441.8,756.7,441.8z"/>
			<path fill="#FFFFFF" d="M756.7,528.5c16.5,0,32.5-1.1,47.7-3.1v-48.6c-15.1,2-31.1,3.1-47.7,3.1c-82.5,0-151.3-26.5-167.5-61.7
				c-2.4,5.1-3.6,10.4-3.6,15.9v16.8C585.6,493.7,662.2,528.5,756.7,528.5z"/>
			<path fill="#FFFFFF" d="M804.3,567.2v-3.8c-15.1,2-31.1,3.1-47.7,3.1c-82.5,0-151.3-26.5-167.5-61.7c-2.4,5.1-3.6,10.4-3.6,15.9
				v16.8c0,42.9,76.6,77.6,171.1,77.6c18.9,0,37.1-1.4,54.1-4c-4.2-8.6-6.4-17.7-6.4-27.1L804.3,567.2L804.3,567.2z"/>
			<path fill="#FFFFFF" d="M1003.3,138.4c-94.5,0-171.1,34.7-171.1,77.6v16.8c0,42.9,76.6,77.6,171.1,77.6s171.1-34.7,171.1-77.6
				V216C1174.4,173.1,1097.8,138.4,1003.3,138.4z"/>
			<path fill="#FFFFFF" d="M1003.3,348.4c-82.5,0-151.3-26.5-167.5-61.7c-2.4,5.1-3.6,10.4-3.6,15.9v16.8
				c0,42.9,76.6,77.6,171.1,77.6s171.1-34.7,171.1-77.6v-16.8c0-5.4-1.2-10.8-3.6-15.9C1154.6,322,1085.8,348.4,1003.3,348.4z"/>
			<path fill="#FFFFFF" d="M1003.3,435.1c-82.5,0-151.3-26.5-167.5-61.7c-2.4,5.1-3.6,10.4-3.6,15.9v16.8
				c0,42.9,76.6,77.6,171.1,77.6s171.1-34.7,171.1-77.6v-16.8c0-5.4-1.2-10.8-3.6-15.9C1154.6,408.6,1085.8,435.1,1003.3,435.1z"/>
			<path fill="#FFFFFF" d="M1003.3,526.4c-82.5,0-151.3-26.5-167.5-61.7c-2.4,5.1-3.6,10.4-3.6,15.9v16.8
				c0,42.9,76.6,77.6,171.1,77.6s171.1-34.7,171.1-77.6v-16.8c0-5.4-1.2-10.8-3.6-15.9C1154.6,499.9,1085.8,526.4,1003.3,526.4z"/>
			<path fill="#FFFFFF" d="M1003.3,613c-82.5,0-151.3-26.5-167.5-61.7c-2.4,5.1-3.6,10.4-3.6,15.9V584c0,42.9,76.6,77.6,171.1,77.6
				s171.1-34.7,171.1-77.6v-16.8c0-5.4-1.2-10.8-3.6-15.9C1154.6,586.5,1085.8,613,1003.3,613z"/>
		</g>
	</g>
</g>
</svg>
