<?xml version="1.0" encoding="utf-8"?>
<!-- Generator: Adobe Illustrator 18.0.0, SVG Export Plug-In . SVG Version: 6.00 Build 0)  -->
<!DOCTYPE svg PUBLIC "-//W3C//DTD SVG 1.1//EN" "http://www.w3.org/Graphics/SVG/1.1/DTD/svg11.dtd">
<svg version="1.1" id="Capa_1" xmlns="http://www.w3.org/2000/svg" xmlns:xlink="http://www.w3.org/1999/xlink" x="0px" y="0px"
	 viewBox="240 0 800 800" enable-background="new 240 0 800 800" xml:space="preserve">
<path fill="#5F2E83" d="M903.8,800H376.2C299.6,800,240,737.6,240,663.8V136.2C240,62.4,302.4,0,376.2,0h527.7
	C980.4,0,1040,62.4,1040,136.2v527.7C1040,740.4,980.4,800,903.8,800z"/>
<path fill="#FFFFFF" d="M795.5,122H484.5c-25,0-45.2,20.3-45.2,45.2v465.5c0,25,20.3,45.2,45.2,45.2h311.1c25,0,45.2-20.3,45.2-45.2
	V167.2C840.8,142.3,820.5,122,795.5,122z M603.7,218.7c20-20,52.5-20,72.5,0c20,20,20,52.5,0,72.5c-20,20-52.5,20-72.5,0
	C583.7,271.2,583.7,238.7,603.7,218.7z M550.2,364.4c0-8.6,4.1-16.5,11.1-21.2c46.8-31.6,110.6-31.6,157.4,0
	c6.9,4.7,11.1,12.6,11.1,21.2v44.4H550.2V364.4z M756.8,569.9H523.2c-9.7,0-17.7-7.9-17.7-17.7s7.9-17.7,17.7-17.7h233.6
	c9.7,0,17.7,7.9,17.7,17.7S766.5,569.9,756.8,569.9z M756.8,499.3H523.2c-9.7,0-17.7-7.9-17.7-17.7s7.9-17.7,17.7-17.7h233.6
	c9.7,0,17.7,7.9,17.7,17.7S766.5,499.3,756.8,499.3z"/>
</svg>
