<?xml version="1.0" encoding="utf-8"?>
<!-- Generator: Adobe Illustrator 23.0.2, SVG Export Plug-In . SVG Version: 6.00 Build 0)  -->
<svg version="1.1" id="Capa_1" xmlns="http://www.w3.org/2000/svg" xmlns:xlink="http://www.w3.org/1999/xlink" x="0px" y="0px"
	 viewBox="0 0 28.2 28.2" style="enable-background:new 0 0 28.2 28.2;" xml:space="preserve">
<style type="text/css">
	.st0{fill:#D6512C;}
	.st1{fill:#FFFFFF;stroke:#FFFFFF;stroke-width:0.3197;stroke-miterlimit:10;}
	.st2{fill:#FFFFFF;}
</style>
<path class="st0" d="M23.4,28.2H4.8c-2.7,0-4.8-2.2-4.8-4.8V4.8C0,2.2,2.2,0,4.8,0h18.6c2.7,0,4.8,2.2,4.8,4.8v18.6
	C28.2,26.1,26.1,28.2,23.4,28.2z"/>
<path class="st1" d="M4.3,10.4C4.1,10.4,4,10.2,4,10V4.7C4,4.3,4.3,4,4.7,4H10c0.2,0,0.3,0.2,0.3,0.3c0,0.2-0.2,0.3-0.3,0.3H4.7
	c0,0,0,0,0,0V10C4.7,10.2,4.5,10.4,4.3,10.4z"/>
<path class="st1" d="M10.2,24.2H4.7c-0.4,0-0.7-0.3-0.7-0.7L4,18c0.3-0.4,0.7-0.1,0.7,0.2v5.3c0,0,0,0,0,0l5.6,0
	C10.7,23.8,10.5,24.2,10.2,24.2z"/>
<path class="st1" d="M23.4,24.2H18c-0.4-0.3-0.1-0.7,0.2-0.7h5.3c0,0,0,0,0,0v-5.3c0-0.2,0.1-0.3,0.3-0.4c0.2,0,0.4,0.1,0.4,0.3v5.3
	C24.2,23.8,23.8,24.2,23.4,24.2z"/>
<path class="st1" d="M23.5,10.2V4.7c0,0,0,0,0,0l-5.5,0c-0.2,0-0.3-0.1-0.4-0.3C17.6,4.2,17.7,4,18,4h5.5c0.4,0,0.7,0.3,0.7,0.7V10
	C24.2,10.3,23.8,10.5,23.5,10.2z"/>
<path class="st2" d="M9.7,12.9c0-0.2-0.1-0.3-0.1-0.5c-0.1-0.4-0.2-0.9-0.2-1.4C9.3,11,9.2,11,9.1,11c-0.1,0.4-0.1,0.7,0,1.1
	C9.2,12.4,9.4,12.7,9.7,12.9z"/>
<path class="st2" d="M11,18.3c-0.4,0.1-1.6,0.6-1.8,0.7c-0.1,0.7-0.5,2.2,0.8,2.9l8.4,0c1.3-0.7,1.2-2,1.2-2.7
	c-0.2-0.1-2.3-0.8-2.4-0.9v0.5c0,0.2-0.2,0.4-0.4,0.4s-0.4-0.2-0.4-0.4v-1.1c-0.4,0.6-0.8,1.1-1.7,1.1h-1.2c-0.9,0-1.3-0.5-1.7-1.1"
	/>
<path class="st2" d="M9.6,18.9c-0.1,0-0.1,0-0.2,0.1C8.9,19,8.5,19.2,8,19.5c-0.4,0.2-0.9,0.5-1.3,0.7c-0.1,0-0.2,0.1-0.2,0.1
	c-0.2,0.1-0.4,0.2-0.6,0.4c0,0.1,0,0.2,0,0.3c0,0.1,0,0.1,0,0.2v0.4c0,0.2,0.2,0.4,0.4,0.4h4C9.6,21,9.6,19.7,9.6,18.9z"/>
<path class="st2" d="M22.2,20.7c-0.2-0.2-0.4-0.3-0.6-0.4c-0.1,0-0.2-0.1-0.2-0.1c-0.4-0.2-0.9-0.5-1.3-0.7
	c-0.4-0.3-0.9-0.4-1.4-0.5c-0.1,0-0.1,0-0.2-0.1c0.1,0.8,0,2.1-0.7,3h4c0.2,0,0.4-0.2,0.4-0.4v-0.4c0-0.1,0-0.1,0-0.2
	C22.3,20.8,22.3,20.7,22.2,20.7z"/>
<path class="st2" d="M17.9,10.9c0-0.6,0-1.2,0-1.8c-0.1-2.6-3.4-2.7-3.6-2.7h-0.6c-0.1,0-3.4,0.2-3.6,2.7c0,0.6,0,1.2,0,1.8v0
	c0,0.5,0.1,1,0.2,1.4c0.1,0.3,0.1,0.7,0.1,1c0,0.1,0,0.2,0,0.3v0.1c0,0.1,0,0.2,0,0.2c0,0.8-0.1,1.4,0.8,2.1
	c0.4,0.4,0.8,0.8,1.1,1.2c0.4,0.6,0.6,0.8,1.1,0.8h1.2c0.5,0,0.7-0.2,1.1-0.8c0.3-0.4,0.7-0.8,1.1-1.2c0.9-0.7,0.8-1.3,0.8-2.1
	c0-0.1,0-0.2,0-0.2c0,0,0,0,0-0.1c0-0.1,0-0.2,0-0.3c0-0.3,0-0.7,0.1-1C17.9,11.8,17.9,11.3,17.9,10.9z M14.1,13.3
	c-1.7,0-3.1-1.4-3.1-3.1c0-1.7,1.4-3.1,3.1-3.1s3.1,1.4,3.1,3.1C17.2,11.9,15.8,13.3,14.1,13.3z"/>
<path class="st2" d="M14.1,7.8c-1.3,0-2.3,1-2.3,2.3s1,2.3,2.3,2.3s2.3-1,2.3-2.3S15.4,7.8,14.1,7.8z M15.5,9.6l-1.6,2
	c-0.1,0.1-0.2,0.1-0.3,0.1h0c-0.1,0-0.2,0-0.3-0.1l-0.8-0.8c-0.1-0.2-0.1-0.4,0-0.5c0.2-0.2,0.4-0.2,0.5,0l0.5,0.5l1.3-1.6
	C15,9,15.2,9,15.3,9s0.3,0.1,0.3,0.2C15.7,9.4,15.6,9.5,15.5,9.6z"/>
<polygon class="st2" points="16.4,17.7 17.6,18.5 16.2,20.1 "/>
</svg>
