<?xml version="1.0" encoding="utf-8"?>
<!-- Generator: Adobe Illustrator 23.0.2, SVG Export Plug-In . SVG Version: 6.00 Build 0)  -->
<svg version="1.1" id="Capa_1" xmlns="http://www.w3.org/2000/svg" xmlns:xlink="http://www.w3.org/1999/xlink" x="0px" y="0px"
	 viewBox="0 0 28.2 28.2" style="enable-background:new 0 0 28.2 28.2;" xml:space="preserve">
<style type="text/css">
	.st0{fill:#69A52F;}
	.st1{fill:#FFFFFF;}
</style>
<path class="st0" d="M23.4,28.2H4.8c-2.7,0-4.8-2.2-4.8-4.8V4.8C0,2.2,2.2,0,4.8,0h18.6c2.7,0,4.8,2.2,4.8,4.8v18.6
	C28.2,26.1,26.1,28.2,23.4,28.2z"/>
<g>
	<path class="st1" d="M3.8,17h6.1v7.3H3.8V17z"/>
	<path class="st1" d="M18.4,17h6.1v7.3h-6.1V17z"/>
	<path class="st1" d="M5.7,15.8h2.4v-3h1.8l-3-4.2l-3.1,4.2h1.9V15.8z"/>
	<path class="st1" d="M18.4,12.7h1.8v3h2.4v-3h1.9l-3.1-4.2L18.4,12.7z"/>
	<path class="st1" d="M14.1,7.2c1,0,1.8-0.8,1.8-1.8c0-1-0.8-1.8-1.8-1.8s-1.8,0.8-1.8,1.8S13.1,7.2,14.1,7.2z"/>
	<path class="st1" d="M11.7,15.8h1.2v2.4h2.4v-2.4h1.2v-6c0-1.3-1.1-2.5-2.4-2.5s-2.4,1.1-2.4,2.5V15.8z"/>
	<path class="st1" d="M11.1,19.4h6v4.9h-6V19.4z"/>
</g>
</svg>
