<?xml version="1.0" encoding="utf-8"?>
<!-- Generator: Adobe Illustrator 23.0.2, SVG Export Plug-In . SVG Version: 6.00 Build 0)  -->
<svg version="1.1" id="Capa_1" xmlns="http://www.w3.org/2000/svg" xmlns:xlink="http://www.w3.org/1999/xlink" x="0px" y="0px"
	 viewBox="0 0 28.2 28.2" style="enable-background:new 0 0 28.2 28.2;" xml:space="preserve">
<style type="text/css">
	.st0{fill:#193F78;}
	.st1{fill-rule:evenodd;clip-rule:evenodd;fill:#FFFFFF;}
</style>
<path class="st0" d="M23.4,28.3H4.8c-2.7,0-4.8-2.2-4.8-4.8V4.8C0,2.1,2.2,0,4.8,0h18.6c2.7,0,4.8,2.2,4.8,4.8v18.6
	C28.3,26.1,26.1,28.3,23.4,28.3z"/>
<g>
	<path class="st1" d="M23.1,16.8l-0.8-1.1H6.2l-0.8,1.1c-0.3,0.4-0.2,1,0.3,1.3C8,19.4,11.8,20,14.6,20s5.8-0.5,8.3-1.9
		C23.3,17.8,23.4,17.2,23.1,16.8z"/>
	<path class="st1" d="M23.2,10.5l-8.6-3.1c-0.2-0.1-0.4-0.1-0.6,0l-8.6,3.1l0,0c0,0-0.1,0-0.1,0.1c-0.4,0.2-0.6,0.8-0.4,1.2L6,13.9
		h16.7l1.1-2c0,0,0.1-0.1,0.1-0.2C23.9,11.2,23.7,10.7,23.2,10.5z M14.3,12.2c-0.4-0.1-1.2-1-1.2-2c0-0.8,0.4-0.6,0.9-1
		c0.2-0.2,0.5-0.2,0.7,0c0.4,0.4,0.9,0.2,0.9,1C15.5,11.2,14.7,12.1,14.3,12.2z"/>
</g>
</svg>
