<?xml version="1.0" encoding="utf-8"?>
<!-- Generator: Adobe Illustrator 23.0.2, SVG Export Plug-In . SVG Version: 6.00 Build 0)  -->
<svg version="1.1" id="Capa_1" xmlns="http://www.w3.org/2000/svg" xmlns:xlink="http://www.w3.org/1999/xlink" x="0px" y="0px"
	 viewBox="0 0 53.2 43.5" style="enable-background:new 0 0 53.2 43.5;" xml:space="preserve">
<style type="text/css">
	.st0{fill:#26A744;}
</style>
<g>
	<path class="st0" d="M45.8,40.4c-0.1,0.5-0.3,0.8-0.6,1.1c-0.4,0.3-0.8,0.4-1.2,0.4c-6.6,0-12.8-1.7-18.4-5
		c-5.5-3.3-9.9-7.6-13.2-13.2c-3.3-5.7-5-11.8-5-18.4c0-0.4,0.1-0.8,0.4-1.2c0.3-0.4,0.6-0.6,1.1-0.6l8.2-1.9
		c0.4-0.1,0.8-0.1,1.3,0.2c0.4,0.2,0.7,0.5,0.9,0.9l3.8,8.8c0.2,0.4,0.2,0.8,0.1,1.2s-0.3,0.8-0.7,1l-4.7,3.9
		c1.4,3.1,3.3,5.8,5.8,8.2s5.1,4.3,8.2,5.7l3.9-4.7c0.3-0.3,0.6-0.5,1-0.6c0.4-0.1,0.8-0.1,1.2,0.1l8.8,3.8c0.4,0.2,0.7,0.4,0.9,0.9
		s0.3,0.8,0.2,1.3L45.8,40.4z"/>
</g>
</svg>
