<?xml version="1.0" encoding="utf-8"?>
<!-- Generator: Adobe Illustrator 18.0.0, SVG Export Plug-In . SVG Version: 6.00 Build 0)  -->
<!DOCTYPE svg PUBLIC "-//W3C//DTD SVG 1.1//EN" "http://www.w3.org/Graphics/SVG/1.1/DTD/svg11.dtd">
<svg version="1.1" id="Capa_1" xmlns="http://www.w3.org/2000/svg" xmlns:xlink="http://www.w3.org/1999/xlink" x="0px" y="0px"
	 viewBox="240 0 800 800" enable-background="new 240 0 800 800" xml:space="preserve">
<path fill="#029B7E" d="M903.8,800H376.2C299.6,800,240,737.6,240,663.8V136.2C240,62.4,302.4,0,376.2,0h527.7
	C980.4,0,1040,62.4,1040,136.2v527.7C1040,740.4,980.4,800,903.8,800z"/>
<g>
	<path fill="#FFFFFF" d="M424.5,106v446.2L639.4,694l216.1-141.8V106H424.5z M808.3,526.7L639.5,637.5L471.7,526.8V153.2h336.5
		V526.7z"/>
	<path fill="#FFFFFF" d="M519,358.2v66.2l120.6,79.6L761,424.2V358l-121.5,79.7L519,358.2z"/>
	<path fill="#FFFFFF" d="M519,244.7v66.2l120.6,79.6L761,310.8v-66.2l-121.5,79.7L519,244.7z"/>
</g>
</svg>
