<?xml version="1.0" encoding="utf-8"?>
<!-- Generator: Adobe Illustrator 23.0.2, SVG Export Plug-In . SVG Version: 6.00 Build 0)  -->
<svg version="1.1" id="Capa_1" xmlns="http://www.w3.org/2000/svg" xmlns:xlink="http://www.w3.org/1999/xlink" x="0px" y="0px"
	 viewBox="0 0 28.2 28.2" style="enable-background:new 0 0 28.2 28.2;" xml:space="preserve">
<style type="text/css">
	.st0{fill:#B21352;}
	.st1{fill:#FFFFFF;}
</style>
<path class="st0" d="M23.4,28.2H4.8C2.1,28.2,0,26,0,23.4V4.8C0,2.1,2.2,0,4.8,0h18.6c2.7,0,4.8,2.2,4.8,4.8v18.6
	C28.2,26.1,26.1,28.2,23.4,28.2z"/>
<g>
	<g>
		<g>
			<path class="st1" d="M12.1,7.7H7.2c-0.9,0-1.6,0.7-1.6,1.6v2.2c-1.5,1.2-2.4,3-2.4,5.1c0,3.6,2.9,6.5,6.5,6.5
				c1.1,0,2.1-0.3,3-0.7c-0.5-0.7-0.8-1.4-1-2.2c-0.6,0.3-1.2,0.5-1.9,0.5c-2.2,0-4.1-1.8-4.1-4.1c0-2.2,1.7-3.9,3.9-4l0,0h3.1l0,0
				c0.6,0,1.1-0.6,1.1-1.2v-2C13.7,8.4,13,7.7,12.1,7.7z M9.7,21.5c0.2,0,0.4,0.2,0.4,0.4s-0.2,0.4-0.4,0.4s-0.4-0.2-0.4-0.4
				S9.4,21.5,9.7,21.5z M9.7,11c-0.4,0-0.8-0.4-0.8-0.8s0.4-0.8,0.8-0.8c0.4,0,0.8,0.4,0.8,0.8S10.1,11,9.7,11z"/>
		</g>
	</g>
	<g>
		<g>
			<path class="st1" d="M18.6,5.5H17l0,0c0-0.1,0-0.1,0-0.2c0-0.9-0.7-1.6-1.6-1.6h-1.6c-0.5,0-0.9,0.2-1.2,0.6
				c-0.3-0.3-0.7-0.6-1.2-0.6H9.8C8.8,3.7,8,4.4,8,5.3s0.7,1.6,1.6,1.6h1.6c0.5,0,0.9-0.2,1.2-0.6c0.3,0.3,0.7,0.6,1.2,0.6h1.6l0,0
				c0,0.1,0,0.1,0,0.2c0,0.9,0.7,1.6,1.6,1.6h1.6C19.3,8.7,20,8,20,7.1C20.2,6.2,19.5,5.5,18.6,5.5z M11.3,6.1H9.7
				c-0.4,0-0.8-0.4-0.8-0.8c0-0.4,0.4-0.8,0.8-0.8h1.6c0.4,0,0.8,0.4,0.8,0.8C12.1,5.7,11.7,6.1,11.3,6.1z M15.3,6.1h-1.6
				c-0.4,0-0.8-0.4-0.8-0.8c0-0.4,0.4-0.8,0.8-0.8h1.6c0.4,0,0.8,0.4,0.8,0.8C16.1,5.7,15.8,6.1,15.3,6.1z M18.6,7.9H17
				c-0.4,0-0.8-0.4-0.8-0.8c-0.1-0.4,0.3-0.8,0.8-0.8h1.6c0.4,0,0.8,0.4,0.8,0.8C19.4,7.5,19,7.9,18.6,7.9z"/>
		</g>
	</g>
	<g>
		<g>
			<path class="st1" d="M23.3,13.8c-0.3,0.7-1,1.2-1.9,1.2H21c1,0.7,1.6,1.9,1.6,3.2c0,2.2-1.8,4.1-4.1,4.1s-4.1-1.8-4.1-4.1
				c0-2.2,1.7-3.9,3.9-4l0,0h3.1l0,0c0.6,0,1.1-0.6,1.1-1.2v-2c0-0.9-0.7-1.6-1.6-1.6H16c-0.9,0-1.6,0.7-1.6,1.6v2.2
				c-1.5,1.2-2.4,3-2.4,5.1c0,3.6,2.9,6.5,6.5,6.5s6.5-2.9,6.5-6.5C25.1,16.5,24.4,15,23.3,13.8z M18.6,11c0.4,0,0.8,0.4,0.8,0.8
				c0,0.4-0.4,0.8-0.8,0.8s-0.8-0.4-0.8-0.8C17.8,11.3,18.1,11,18.6,11z M18.6,23.9c-0.2,0-0.4-0.2-0.4-0.4s0.2-0.4,0.4-0.4
				s0.4,0.2,0.4,0.4S18.8,23.9,18.6,23.9z"/>
		</g>
	</g>
</g>
</svg>
