<?xml version="1.0" encoding="utf-8"?>
<!-- Generator: Adobe Illustrator 23.0.2, SVG Export Plug-In . SVG Version: 6.00 Build 0)  -->
<svg version="1.1" id="Capa_1" xmlns="http://www.w3.org/2000/svg" xmlns:xlink="http://www.w3.org/1999/xlink" x="0px" y="0px"
	 viewBox="0 0 28.2 28.2" style="enable-background:new 0 0 28.2 28.2;" xml:space="preserve">
<style type="text/css">
	.st0{fill:#5F2E83;}
	.st1{fill:#FFFFFF;}
</style>
<path class="st0" d="M23.4,28.2H4.8C2.1,28.2,0,26,0,23.4V4.8C0,2.1,2.2,0,4.8,0h18.6c2.7,0,4.8,2.2,4.8,4.8v18.6
	C28.2,26.1,26.1,28.2,23.4,28.2z"/>
<g>
	<path class="st1" d="M13.5,15.4c-0.5-1-1.7-1.4-2.8-0.8c-1,0.5-1.4,1.8-0.9,2.8s1.7,1.4,2.8,0.8C13.7,17.7,14.1,16.4,13.5,15.4z"/>
	<path class="st1" d="M21.6,10.3l-1.8-3.5c-0.1-0.2-0.4-0.3-0.6-0.2l-5.1,2.7c-0.2,0.1-0.3,0.4-0.2,0.6l0.5,0.9l-1.6,0.8l-0.5-0.9
		c-0.1-0.2-0.4-0.3-0.6-0.2l-2.5,1.3c-2.6,1.4-3.6,4.7-2,7.2l-0.3,0.3c-0.5,0.5-0.5,1.4,0,1.9s1.4,0.5,1.9,0l0.3-0.3
		c1.5,0.9,3.5,0.9,5.1,0c2.2-1.2,3-3.7,2.4-6c-0.2-0.8,0.1-1.6,0.9-2l3.9-2C21.7,10.8,21.7,10.5,21.6,10.3L21.6,10.3z M8.2,20.7
		c-0.2,0.2-0.4,0.2-0.6,0c-0.2-0.2-0.2-0.4,0-0.6l0.2-0.2c0.2,0.2,0.4,0.4,0.6,0.6L8.2,20.7z M13,19c-1.5,0.8-3.2,0.2-4-1.2
		c-0.7-1.4-0.2-3.2,1.3-4c1.5-0.8,3.2-0.2,4,1.2l0,0C15.1,16.5,14.5,18.3,13,19L13,19z"/>
	<path class="st1" d="M11.8,8.7c0.1,0.2,0.4,0.3,0.6,0.2s0.3-0.4,0.2-0.6l-0.7-1.2c-0.1-0.2-0.4-0.3-0.6-0.2C11.1,7,11,7.3,11.1,7.5
		L11.8,8.7z"/>
	<path class="st1" d="M9.8,9.8c1.5,0.3,1.4,0.3,1.4,0.3c0.2,0,0.4-0.1,0.4-0.3c0.1-0.2-0.1-0.5-0.3-0.5L10,9
		C9.8,8.9,9.5,9.1,9.5,9.3C9.4,9.5,9.6,9.8,9.8,9.8z"/>
	<path class="st1" d="M13.5,8.8c0.2,0.1,0.5,0,0.6-0.2l0.5-1.3c0.1-0.2,0-0.5-0.2-0.6s-0.5,0-0.6,0.2l-0.5,1.3
		C13.2,8.5,13.3,8.7,13.5,8.8L13.5,8.8z"/>
</g>
</svg>
