<?xml version="1.0" encoding="utf-8"?>
<!-- Generator: Adobe Illustrator 18.0.0, SVG Export Plug-In . SVG Version: 6.00 Build 0)  -->
<!DOCTYPE svg PUBLIC "-//W3C//DTD SVG 1.1//EN" "http://www.w3.org/Graphics/SVG/1.1/DTD/svg11.dtd">
<svg version="1.1" id="Capa_1" xmlns="http://www.w3.org/2000/svg" xmlns:xlink="http://www.w3.org/1999/xlink" x="0px" y="0px"
	 viewBox="240 0 800 800" enable-background="new 240 0 800 800" xml:space="preserve">
<path fill="#4E47D1" d="M903.8,800H376.2C299.6,800,240,737.6,240,663.8V136.2C240,62.4,302.4,0,376.2,0h527.7
	C980.4,0,1040,62.4,1040,136.2v527.7C1040,740.4,980.4,800,903.8,800z"/>
<g>
	<path fill="#FFFFFF" d="M793.5,263.6C793.5,179,724.6,109,640,109s-153.5,70-153.5,154.6S555.4,417.1,640,417.1
		S793.5,348.2,793.5,263.6z M622.9,365.9v-15.1c-19.9-7-34.3-25.8-34.3-48.1c0-9.4,7.6-17.1,17.1-17.1c9.4,0,17.1,7.6,17.1,17.1
		c0,9.4,7.6,17.1,17.1,17.1c9.4,0,17.1-7.6,17.1-17.1s-7.6-17.1-17.1-17.1c-28.2,0-51.2-22.9-51.2-51.2c0-22.3,14.4-41.1,34.3-48.1
		v-25.1c0-9.4,7.6-17.1,17.1-17.1c9.4,0,17.1,7.6,17.1,17.1v25.2c19.7,7.1,33.9,25.8,33.9,48c0,9.4-7.6,17.1-17.1,17.1
		c-9.4,0-17.1-7.6-17.1-17.1c0-9.4-7.6-17.1-17.1-17.1c-9.4,0-17.1,7.6-17.1,17.1s7.6,17.1,17.1,17.1c28.2,0,51.2,22.9,51.2,51.2
		c0,22.1-14.2,40.8-33.9,48v15.3c0,9.4-7.6,17.1-17.1,17.1C630.6,383,622.9,375.3,622.9,365.9z"/>
	<path fill="#FFFFFF" d="M366.1,655.8l100.7-0.3c3,0.5,162.5,29.5,197.8,35.3c4.4,0.7,8.7-0.2,12.4-2.8
		c38.4-26.9,262.3-185.2,246.9-174.4c7.9-5.6,9.3-16.1,4.1-23.9c-16.6-23.1-48.9-28.3-71.3-12.3c-3.4,2.4-169.2,117.5-158.7,110.2
		H571.8c-9.6,0-17.1-7.5-17.1-17.1c0-9.6,7.5-17.1,17.1-17.1c12,0,107.2,0,102.3,0c18.8,0,34.1-15.3,34.1-34.1
		c0-18.8-15.3-34.1-34.1-34.1H653c-4.1,0-8.2-1.4-11.3-4.1c-4.2-3.2-20.4-20.8-47.4-30c-77.4-27.4-126.6,31.6-131.3,34.1h-97
		c-9.4,0-17.1,7.6-17.1,17.1v136.5C349,648.2,356.6,655.8,366.1,655.8z"/>
</g>
</svg>
