<?xml version="1.0" encoding="utf-8"?>
<!-- Generator: Adobe Illustrator 18.0.0, SVG Export Plug-In . SVG Version: 6.00 Build 0)  -->
<!DOCTYPE svg PUBLIC "-//W3C//DTD SVG 1.1//EN" "http://www.w3.org/Graphics/SVG/1.1/DTD/svg11.dtd">
<svg version="1.1" id="Capa_1" xmlns="http://www.w3.org/2000/svg" xmlns:xlink="http://www.w3.org/1999/xlink" x="0px" y="0px"
	 viewBox="240 0 800 800" enable-background="new 240 0 800 800" xml:space="preserve">
<path fill="#18B27E" d="M903.8,800H376.2C299.6,800,240,737.6,240,663.8V136.2C240,62.4,302.4,0,376.2,0h527.7
	C980.4,0,1040,62.4,1040,136.2v527.7C1040,740.4,980.4,800,903.8,800z"/>
<g>
	<g>
		<polygon fill="#FFFFFF" points="431.6,199.9 505.1,199.9 505.1,126.4 		"/>
	</g>
</g>
<path fill="#FFFFFF" d="M537.2,126.4v105.6H431.6v441.7h416.9V126.4H537.2z M603.7,312.4c20-20,52.5-20,72.5,0c20,20,20,52.5,0,72.5
	c-20,20-52.5,20-72.5,0C583.7,364.9,583.7,332.5,603.7,312.4z M729.8,502.6H550.2v-44.4c0-8.6,4.1-16.5,11.1-21.2
	c46.8-31.6,110.6-31.6,157.4,0c6.9,4.7,11.1,12.6,11.1,21.2V502.6z"/>
</svg>
