<?xml version="1.0" encoding="utf-8"?>
<!-- Generator: Adobe Illustrator 18.0.0, SVG Export Plug-In . SVG Version: 6.00 Build 0)  -->
<!DOCTYPE svg PUBLIC "-//W3C//DTD SVG 1.1//EN" "http://www.w3.org/Graphics/SVG/1.1/DTD/svg11.dtd">
<svg version="1.1" id="Capa_1" xmlns="http://www.w3.org/2000/svg" xmlns:xlink="http://www.w3.org/1999/xlink" x="0px" y="0px"
	 viewBox="480 0 800 800" enable-background="new 480 0 800 800" xml:space="preserve">
<path fill="#FF6348" d="M1143.8,800H616.2C539.6,800,480,737.6,480,663.8V136.2C480,62.4,542.4,0,616.2,0h527.7
	c76.5,0,136.1,62.4,136.1,136.2v527.7C1280,740.4,1220.4,800,1143.8,800z"/>
<g>
	<path fill="#FFFFFF" d="M884.3,160c-120.7,0-220.5,89.6-237.2,205.7h-71.3l102.8,102.8l102.8-102.8h-65.1
		c15.9-78.1,85.2-137.1,167.9-137.1c94.5,0,171.4,76.9,171.4,171.4s-76.9,171.4-171.4,171.4c-55,0-107-26.7-139.2-71.3l-55.6,40
		c45,62.5,117.9,99.9,194.8,99.9c132.3,0,240-107.7,240-240S1016.6,160,884.3,160L884.3,160z"/>
	<path fill="#FFFFFF" d="M850,297.2v139.4L952.3,498l35.3-58.8l-69.1-41.4V297.2H850z"/>
</g>
</svg>
