<?xml version="1.0" encoding="utf-8"?>
<!-- Generator: Adobe Illustrator 23.0.2, SVG Export Plug-In . SVG Version: 6.00 Build 0)  -->
<svg version="1.1" id="Capa_1" xmlns="http://www.w3.org/2000/svg" xmlns:xlink="http://www.w3.org/1999/xlink" x="0px" y="0px"
	 viewBox="0 0 28.2 28.2" style="enable-background:new 0 0 28.2 28.2;" xml:space="preserve">
<style type="text/css">
	.st0{fill:#35B1B1;}
	.st1{fill:#FFFFFF;}
</style>
<path class="st0" d="M23.4,28.2H4.8C2.1,28.2,0,26,0,23.4V4.8C0,2.1,2.2,0,4.8,0h18.6c2.7,0,4.8,2.2,4.8,4.8v18.6
	C28.2,26.1,26.1,28.2,23.4,28.2z"/>
<g>
	<path class="st1" d="M17.4,8.8c-0.3,0-0.5-0.2-0.5-0.5V5.6H8.5C8.3,5.6,8.1,5.8,8.1,6v16.1c0,0.2,0.2,0.4,0.4,0.4h11
		c0.2,0,0.4-0.2,0.4-0.4V8.8H17.4z M11.7,12l1.9-4.2c0.2-0.4,0.7-0.4,0.9,0l1.9,4.2c0.1,0.3,0,0.5-0.2,0.7c-0.3,0.1-0.5,0-0.7-0.2
		c-0.1-0.3-0.1-0.1-0.4-1h-2c-0.4,0.8-0.3,0.7-0.4,1c-0.1,0.3-0.4,0.4-0.7,0.2C11.7,12.6,11.6,12.3,11.7,12L11.7,12z M13.4,20h-2.9
		c-0.3,0-0.5-0.2-0.5-0.5s0.2-0.5,0.5-0.5h2.9c0.3,0,0.5,0.2,0.5,0.5S13.7,20,13.4,20z M13.4,16.2h-2.9c-0.3,0-0.5-0.2-0.5-0.5
		s0.2-0.5,0.5-0.5h2.9c0.3,0,0.5,0.2,0.5,0.5C13.9,16,13.7,16.2,13.4,16.2z M18,19.3l-1.2,1.2c-0.2,0.2-0.5,0.2-0.7,0l-0.7-0.7
		c-0.2-0.2-0.2-0.5,0-0.7s0.5-0.2,0.7,0l0.3,0.3l0.8-0.8c0.2-0.2,0.5-0.2,0.7,0C18.2,18.8,18.2,19.1,18,19.3L18,19.3z M18,15
		l-1.2,1.2c-0.2,0.2-0.5,0.2-0.7,0l-0.7-0.7c-0.2-0.2-0.2-0.5,0-0.7s0.5-0.2,0.7,0l0.3,0.3l0.8-0.8c0.2-0.2,0.5-0.2,0.7,0
		C18.2,14.5,18.2,14.9,18,15L18,15z"/>
	<path class="st1" d="M14.1,9.2l-0.6,1.3h1.1L14.1,9.2z"/>
	<path class="st1" d="M17.9,6.4v1.4h1.4L17.9,6.4z"/>
</g>
</svg>
