<?xml version="1.0" encoding="utf-8"?>
<!-- Generator: Adobe Illustrator 23.0.2, SVG Export Plug-In . SVG Version: 6.00 Build 0)  -->
<svg version="1.1" id="Capa_1" xmlns="http://www.w3.org/2000/svg" xmlns:xlink="http://www.w3.org/1999/xlink" x="0px" y="0px"
	 viewBox="0 0 28.2 28.2" style="enable-background:new 0 0 28.2 28.2;" xml:space="preserve">
<style type="text/css">
	.st0{fill:#ED7017;}
	.st1{fill:#FFFFFF;}
</style>
<path class="st0" d="M23.4,28.3H4.8c-2.7,0-4.8-2.2-4.8-4.8V4.8C0,2.1,2.2,0,4.8,0h18.6c2.7,0,4.8,2.2,4.8,4.8v18.6
	C28.2,26.1,26.1,28.3,23.4,28.3z"/>
<path class="st1" d="M14.1,8.5c-1.9,0-3.4,1.5-3.4,3.4s1.5,3.4,3.4,3.4s3.4-1.5,3.4-3.4C17.5,10.1,16,8.5,14.1,8.5z"/>
<path class="st1" d="M21.2,14.3l-1-2.3l1-2.3L19,8.4l-0.5-2.5L16,6.2l-1.9-1.7l-1.9,1.7L9.7,5.9L9.2,8.4L7,9.7L8,12l-1,2.3l2.2,1.3
	l0.3,1.3l-2.4,5h2.5l1.6,1.9l2.3-4.9l0.6,0.6l0.6-0.6l2.3,4.9l1.6-1.9h2.5l-2.4-5l0.3-1.3L21.2,14.3z M14.1,16.5
	c-2.5,0-4.6-2-4.6-4.6s2-4.6,4.6-4.6c2.5,0,4.6,2,4.6,4.6S16.6,16.5,14.1,16.5z"/>
</svg>
