<?xml version="1.0" encoding="utf-8"?>
<!-- Generator: Adobe Illustrator 23.0.2, SVG Export Plug-In . SVG Version: 6.00 Build 0)  -->
<svg version="1.1" id="Capa_1" xmlns="http://www.w3.org/2000/svg" xmlns:xlink="http://www.w3.org/1999/xlink" x="0px" y="0px"
	 viewBox="0 0 28.2 28.2" style="enable-background:new 0 0 28.2 28.2;" xml:space="preserve">
<style type="text/css">
	.st0{fill:#2980BB;}
	.st1{fill:#FFFFFF;}
</style>
<path class="st0" d="M23.4,28.2H4.8c-2.7,0-4.8-2.2-4.8-4.8V4.8C0,2.2,2.2,0,4.8,0h18.6c2.7,0,4.8,2.2,4.8,4.8v18.6
	C28.2,26.1,26.1,28.2,23.4,28.2z"/>
<path class="st1" d="M7.6,24.7h13c0.8,0,1.4-0.6,1.4-1.3V7.6c0-0.7-0.6-1.3-1.4-1.3h-2v1.2c0,0.2-0.2,0.4-0.4,0.4H9.9
	c-0.2,0-0.4-0.2-0.4-0.4V6.3H7.6c-0.8,0-1.4,0.6-1.4,1.3v15.8C6.2,24.1,6.8,24.7,7.6,24.7z M9.3,11.9H19c0.2,0,0.4,0.3,0.4,0.5
	s-0.2,0.5-0.4,0.5H9.3c-0.2,0-0.4-0.3-0.4-0.5S9.1,11.9,9.3,11.9z M9.3,15.4H19c0.2,0,0.4,0.3,0.4,0.5c0,0.2-0.2,0.5-0.4,0.5H9.3
	c-0.2,0-0.4-0.3-0.4-0.5C8.8,15.7,9.1,15.4,9.3,15.4z M9.3,18.9H19c0.2,0,0.4,0.3,0.4,0.5s-0.2,0.5-0.4,0.5H9.3
	c-0.2,0-0.4-0.3-0.4-0.5S9.1,18.9,9.3,18.9z"/>
<path class="st1" d="M17.7,4.6H16c-0.2,0-0.3-0.1-0.4-0.3c-0.1-0.7-0.8-1.2-1.5-1.2h0c-0.7,0-1.3,0.5-1.5,1.2c0,0.2-0.2,0.3-0.4,0.3
	h-1.8v2.5h7.3V4.6z"/>
</svg>
