<?xml version="1.0" encoding="utf-8"?>
<!-- Generator: Adobe Illustrator 23.0.2, SVG Export Plug-In . SVG Version: 6.00 Build 0)  -->
<svg version="1.1" id="Capa_1" xmlns="http://www.w3.org/2000/svg" xmlns:xlink="http://www.w3.org/1999/xlink" x="0px" y="0px"
	 viewBox="0 0 174.3 45.1" style="enable-background:new 0 0 174.3 45.1;" xml:space="preserve">
<style type="text/css">
	.st0{fill:#26A744;}
	.st1{fill:#888B8D;}
</style>
<path class="st0" d="M59,24.6c0.2,0.3,0.5,0.5,1,0.5c0.6,0,1-0.6,1-0.6l9.9-12.7c0.8-0.9,1.6-0.2,1.6-0.2c0.8,0.8,0.2,1.6,0.2,1.6
	l-2.2,2.8l0,0c-0.2,0.2-0.3,0.5-0.3,0.8c0,0.3,0.1,0.5,0.3,0.7v0l2.2,2.8l7-8.9L76.9,8l-0.5-0.7c-0.5-0.7-1.5-0.8-1.5-0.8h-4.2
	c-1.1,0-1.7,0.8-1.7,0.8L57.2,22.3L59,24.6z"/>
<path class="st0" d="M58.5,16.9l-2.8-3.6c-0.6-0.9,0.3-1.6,0.3-1.6c1.1-0.6,1.7,0.3,1.7,0.3l2.3,3l2.8-3.5l-3.2-4.1
	c-0.8-1.1-1.9-0.9-1.9-0.9h-3.8c-1.2,0-1.7,0.8-1.7,0.8l-3.4,4.3l7,9L58.5,16.9z"/>
<path class="st0" d="M69.4,20c0,0-0.3-0.5-0.9-0.5c-0.6,0-0.9,0.4-0.9,0.4l-10,12.8c-0.8,0.9-1.7,0.2-1.7,0.2
	c-0.8-0.8-0.1-1.6-0.1-1.6l2.2-2.9l0,0c0.2-0.2,0.3-0.5,0.3-0.8c0-0.3-0.1-0.5-0.3-0.7l0,0l-2.2-2.8l-7,9l3.9,5l6.2,0l12.4-15.9
	L69.4,20z"/>
<path class="st0" d="M69.9,27.7l2.8,3.6c0.7,0.9-0.2,1.6-0.2,1.6c-1.1,0.7-1.8-0.4-1.8-0.4l-2.4-3l-2.8,3.5l4,5.1l6.1,0l3.9-5l-7-9
	L69.9,27.7z"/>
<path class="st0" d="M79.6,19.5c-1.6,0-2.8,1.3-2.8,2.8c0,1.5,1.3,2.8,2.8,2.8c1.6,0,2.8-1.3,2.8-2.8C82.5,20.8,81.2,19.5,79.6,19.5
	 M79.6,23.9c-0.8,0-1.5-0.7-1.5-1.5c0-0.8,0.7-1.5,1.5-1.5c0.8,0,1.5,0.7,1.5,1.5C81.1,23.2,80.4,23.9,79.6,23.9"/>
<path class="st0" d="M64.2,6.5c1.6,0,2.8-1.3,2.8-2.8c0-1.5-1.3-2.8-2.8-2.8c-1.6,0-2.8,1.3-2.8,2.8C61.3,5.2,62.6,6.5,64.2,6.5
	 M64.2,2.2c0.8,0,1.5,0.7,1.5,1.5c0,0.8-0.7,1.5-1.5,1.5c-0.8,0-1.5-0.7-1.5-1.5C62.7,2.8,63.4,2.2,64.2,2.2"/>
<path class="st0" d="M51.6,22.3c0-1.5-1.3-2.8-2.8-2.8c-1.6,0-2.8,1.3-2.8,2.8c0,1.5,1.3,2.8,2.8,2.8C50.3,25.1,51.6,23.9,51.6,22.3
	 M47.2,22.3c0-0.8,0.7-1.5,1.5-1.5c0.8,0,1.5,0.7,1.5,1.5c0,0.8-0.7,1.5-1.5,1.5C47.9,23.8,47.2,23.2,47.2,22.3"/>
<path class="st0" d="M64.2,38.2c-1.6,0-2.8,1.3-2.8,2.8c0,1.5,1.3,2.8,2.8,2.8S67,42.6,67,41C67,39.5,65.8,38.2,64.2,38.2
	 M64.2,42.5c-0.8,0-1.5-0.7-1.5-1.5c0-0.8,0.7-1.5,1.5-1.5c0.8,0,1.5,0.7,1.5,1.5C65.7,41.8,65,42.5,64.2,42.5"/>
<path class="st1" d="M33.7,4.5v21c0,2.5-0.8,4.9-2.4,7c-1.3,1.7-3.1,3.2-5.4,4.6c-3.5,2-7,3-7.8,3.2c-0.8-0.2-4.3-1.1-7.8-3.2
	c-2.3-1.3-4.1-2.9-5.4-4.6c-1.6-2.1-2.4-4.4-2.4-7v-21H33.7 M34.5,3.7H1.8v21.8c0,12,16.3,15.6,16.3,15.6h0c0,0,16.3-3.6,16.3-15.6
	V3.7z"/>
<path class="st1" d="M22.1,10.6v-2h-2.1v1.9h-0.8V8.6h-2.1v1.9h-0.8V8.6h-2.1v2l1,1.8c0,0.1,0.1,0.1,0.1,0.2l0,9.2h1l0-3.3
	c0-0.8,0.9-1.5,1.9-1.5c1,0,1.9,0.7,1.9,1.5l0,3.3h1l0-3.5c0,0,0,0,0,0v-1.7c0,0,0,0,0,0l0-1.3c0,0,0,0,0,0v-0.5l0-2.1
	c0-0.1,0-0.1,0.1-0.2L22.1,10.6z"/>
<path class="st1" d="M14.5,22l0-3l-0.4,0.2c-0.1,0.1-0.3,0.1-0.4,0l-0.4-0.3c0,0,0,0,0,0l0,1.2c0,0.1-0.1,0.2-0.2,0.3
	c0,0,0.1,0,0.1,0.1c0.5,0.4,0.6,1,0.5,1.5H14.5z"/>
<path class="st1" d="M18.2,17.8c-0.6,0-1,0.4-1,0.7l0,3.3h2.1l0-3.3C19.2,18.2,18.8,17.8,18.2,17.8"/>
<path class="st1" d="M5.9,22c-0.1-0.3-0.2-0.6-0.3-0.9c-0.1-0.6-0.1-1.2-0.1-1.2c0-0.2,0.1-0.3,0.3-0.4l0.9-0.3l-1-0.7
	c-0.1-0.1-0.2-0.2-0.2-0.3V17c0-0.2,0.1-0.3,0.2-0.4l0.4-0.2v-0.4l-0.4-0.1c-0.2-0.1-0.3-0.2-0.3-0.4l0-1.3c0-0.2,0.2-0.4,0.4-0.4
	l1.2,0c0-0.3,0-0.8,0.1-1.1c0.1-0.5,0.4-1,0.5-1.3l-0.1-0.5c0-0.1,0-0.2,0.1-0.3c0.1-0.1,0.2-0.1,0.3-0.1h0.7c0.1,0,0.2,0,0.2,0.1
	l1.6,1h0.8c0.1,0,0.2,0,0.3,0.1c0.1,0.1,0.1,0.2,0.1,0.3l-0.1,1.3c0,0.1-0.1,0.2-0.1,0.3l0.5,0c0.1,0,0.2,0,0.3,0.1l0.2,0.2l0.2-0.1
	l0.3-0.6c0.1-0.1,0.2-0.2,0.4-0.2h1.1v-0.2l-1-1.8c0-0.1-0.1-0.1-0.1-0.2V8.2c0-0.2,0.2-0.4,0.4-0.4h2.5h0.8h2.1h0.8h2.5
	c0.2,0,0.4,0.2,0.4,0.4v2.5c0,0.1,0,0.1-0.1,0.2l-1,1.8v0.2h1.1c0.2,0,0.3,0.1,0.4,0.2l0.3,0.6l0.2,0.1l0.2-0.2
	c0.1-0.1,0.2-0.1,0.3-0.1l0.5,0c-0.1-0.1-0.1-0.2-0.1-0.3L24.6,12c0-0.1,0-0.2,0.1-0.3c0.1-0.1,0.2-0.1,0.3-0.1h0.8l1.6-1
	c0.1,0,0.1-0.1,0.2-0.1h0.7c0.1,0,0.2,0.1,0.3,0.1c0.1,0.1,0.1,0.2,0.1,0.3l-0.1,0.5c0.1,0.2,0.4,0.8,0.5,1.3
	c0.1,0.4,0.1,0.8,0.1,1.1l1.2,0c0.2,0,0.4,0.2,0.4,0.4l0,1.3c0,0.2-0.1,0.3-0.3,0.4l-0.4,0.1v0.4l0.4,0.2c0.1,0.1,0.2,0.2,0.2,0.4
	v1.1c0,0.1-0.1,0.3-0.2,0.3l-1,0.7l0.9,0.3c0.2,0.1,0.3,0.2,0.3,0.4c0,0,0,0.6-0.1,1.2c-0.1,0.4-0.1,0.7-0.3,0.9h1.5c0,0,0,0,0,0
	V6.4H4.5V22H5.9z"/>
<path class="st1" d="M23.1,20.4c0,0,0.1-0.1,0.1-0.1c-0.1-0.1-0.2-0.2-0.2-0.3l0-1.2c0,0,0,0,0,0l-0.4,0.3c-0.1,0.1-0.3,0.1-0.4,0
	l-0.3-0.2l0,3h0.8C22.5,21.5,22.6,20.9,23.1,20.4"/>
<path class="st1" d="M28.4,30.3c-0.2,0-0.4-0.2-0.4-0.4v-2.6c0-0.2-0.1-0.4-0.3-0.6c-0.2-0.2-0.4-0.3-0.8-0.3c-0.6,0-1,0.5-1,1v2.6
	c0,0.1,0,0.2-0.1,0.3c-0.1,0.1-0.2,0.1-0.3,0.1h-2.4c-0.2,0-0.4-0.2-0.4-0.4v-2.6c0-0.2-0.1-0.4-0.3-0.6c-0.2-0.2-0.4-0.3-0.8-0.3
	c-0.3,0-0.5,0.1-0.7,0.3l2,10c2.8-1.2,6-3.2,7.8-6.3H28.4z"/>
<path class="st1" d="M22.1,36.8l-2.8-14.1h-2.2l-2.8,14.1c0,0,0,0,0,0.1c1.9,0.8,3.5,1.2,3.9,1.3C18.6,38.1,20.2,37.7,22.1,36.8
	C22.1,36.9,22.1,36.9,22.1,36.8"/>
<path class="st1" d="M15.5,26.6c-0.2-0.2-0.4-0.3-0.7-0.3h0c-0.4,0-0.7,0.2-0.8,0.3c-0.2,0.2-0.3,0.4-0.3,0.6v2.6
	c0,0.2-0.2,0.4-0.4,0.4h-2.4c-0.1,0-0.2,0-0.3-0.1c-0.1-0.1-0.1-0.2-0.1-0.3v-2.6c-0.1-0.5-0.4-0.9-1-1h0c-0.4,0-0.7,0.2-0.8,0.3
	c-0.2,0.2-0.3,0.4-0.3,0.6v2.6c0,0.2-0.2,0.4-0.4,0.4H5.8c1.8,3.1,5,5.1,7.8,6.3L15.5,26.6z"/>
<path class="st1" d="M31.9,22.8H20.1l0.6,3c0.3-0.1,0.5-0.2,0.9-0.2c0.5,0,1,0.2,1.4,0.6c0.3,0.3,0.5,0.8,0.5,1.2v2.2h1.6v-2.2
	c0,0,0,0,0,0c0.1-1,0.9-1.7,1.8-1.7c0.5,0,1,0.2,1.4,0.6c0.3,0.3,0.5,0.8,0.5,1.2v2.2H31c0.5-1.2,0.9-2.6,0.9-4.1L31.9,22.8
	C31.9,22.8,31.9,22.8,31.9,22.8"/>
<path class="st1" d="M7.5,29.5v-2.2c0-0.4,0.2-0.9,0.5-1.2c0.4-0.4,0.9-0.6,1.4-0.6c1,0,1.7,0.7,1.8,1.7c0,0,0,0,0,0v2.2h1.6v-2.2
	c0-0.4,0.2-0.9,0.5-1.2c0.4-0.4,0.9-0.6,1.4-0.6c0.3,0,0.6,0.1,0.8,0.2l0.6-2.9H4.5v2.6c0,1.5,0.3,2.9,0.9,4.1H7.5z"/>
<path class="st1" d="M8.5,21.1h0.7c0,0.1,0.1,0.2,0.1,0.3c0,0.1,0,0.1,0,0.2c0,0.1,0,0.3-0.1,0.4H6.9c-0.3-0.2-0.5-1.1-0.5-1.9
	l1-0.3c0.2-0.1,0.3-0.2,0.3-0.4V19c0-0.1-0.1-0.3-0.2-0.3l-1.1-0.8v-0.7l0.4-0.2C6.9,17,7,16.9,7,16.7v-0.9c0-0.2-0.1-0.3-0.3-0.4
	l-0.4-0.1l0-0.7l1.1,0l0.5,0.8l0,1.1l-0.3,1.1c0,0.1,0,0.3,0.1,0.4c0.1,0.1,0.2,0.2,0.3,0.2h0.3c0.2,0,0.4-0.1,0.4-0.3
	c0-0.2,0.1-0.7,0.2-0.9c0.1-0.2,0.4-0.6,0.5-0.8c0.1-0.2,0.1-0.4,0-0.5L8.1,14c0-0.2-0.1-0.8,0-1.2c0.1-0.4,0.4-1,0.5-1.2
	c0-0.1,0.1-0.2,0.1-0.3l0-0.1h0.1l1.6,1c0.1,0,0.1,0.1,0.2,0.1H11l0,0.6l-0.5,0.2c-0.2,0.1-0.3,0.2-0.3,0.4l0,0.4
	c0,0.2,0.2,0.4,0.4,0.4l1.4,0l0.4,0.4c0.1,0.1,0.4,0.2,0.5,0c0,0,0.6-0.5,0.7-0.6l0.2-0.5h0.8v0.9l0,0.5c0,0-1.5,0.5-1.6,0.6
	c-0.1,0-0.1,0.5-0.1,0.6c0,0.1,0,0.2,0.2,0.3c0,0,0.4,0.3,0.6,0.4l0.4-0.4l0.6,0l0,1.4L14,18.3l-1.7-1.2c-0.2-0.1-0.4-0.1-0.5,0.1
	l-0.3,0.3c-0.1,0.2-0.1,0.4,0,0.5l1,0.9l0,0.7l-1,0.4c-0.1,0.1-0.2,0.2-0.2,0.4v0.2c0,0.2,0.2,0.4,0.4,0.4h1.2
	c0.2,0.2,0.1,0.6,0,0.8h-2.7c-0.1-0.1-0.1-0.3-0.2-0.5c0-0.1,0-0.1,0-0.2c0-0.3,0-0.5,0.1-0.7l0.6-0.8c0.1-0.1,0.1-0.1,0.1-0.2
	l0-0.4c0-0.1-0.1-0.3-0.2-0.3c-0.1-0.1-0.3-0.1-0.4,0l-1,0.4C9.1,19.3,9,19.5,9,19.6L9,20l-0.6,0.2c-0.2,0.1-0.3,0.2-0.3,0.4v0.2
	C8.1,21,8.3,21.1,8.5,21.1"/>
<path class="st1" d="M27.9,21.1h-0.7c-0.1,0.1-0.1,0.2-0.1,0.3c0,0.1,0,0.1,0,0.2c0,0.1,0,0.3,0.1,0.4h2.3c0.3-0.2,0.5-1.1,0.5-1.9
	l-1-0.3c-0.2-0.1-0.3-0.2-0.3-0.4V19c0-0.1,0.1-0.3,0.2-0.3l1.1-0.8v-0.7l-0.4-0.2c-0.1-0.1-0.2-0.2-0.2-0.4v-0.9
	c0-0.2,0.1-0.3,0.3-0.4l0.4-0.1l0-0.7l-1.1,0l-0.5,0.8l0,1.1l0.3,1.1c0,0.1,0,0.3-0.1,0.4c-0.1,0.1-0.2,0.2-0.3,0.2h-0.3
	c-0.2,0-0.4-0.1-0.4-0.3c0-0.2-0.1-0.7-0.2-0.9c-0.1-0.2-0.4-0.6-0.5-0.8c-0.1-0.2-0.1-0.4,0-0.5l1.4-1.6c0-0.2,0.1-0.8,0-1.2
	c-0.1-0.4-0.4-1-0.5-1.2c0-0.1-0.1-0.2-0.1-0.3l0-0.1h-0.1l-1.6,1c-0.1,0-0.1,0.1-0.2,0.1h-0.4l0,0.6l0.5,0.2
	c0.2,0.1,0.3,0.2,0.3,0.4l0,0.4c0,0.2-0.2,0.4-0.4,0.4l-1.4,0l-0.4,0.4c-0.1,0.1-0.4,0.2-0.5,0c0,0-0.6-0.5-0.7-0.6l-0.2-0.5h-0.8
	v0.9v0.5c0,0,1.5,0.5,1.6,0.6c0.1,0,0.1,0.5,0.1,0.6c0,0.1,0,0.2-0.2,0.3c0,0-0.4,0.3-0.6,0.4l-0.4-0.4l-0.6,0l0,1.4l0.5,0.3
	l1.7-1.2c0.2-0.1,0.4-0.1,0.5,0.1l0.3,0.3c0.1,0.2,0.1,0.4,0,0.5l-1,0.9l0,0.7l1,0.4c0.1,0.1,0.2,0.2,0.2,0.4v0.2
	c0,0.2-0.2,0.4-0.4,0.4h-1.2c-0.2,0.2-0.1,0.6,0,0.8h2.7c0.1-0.1,0.1-0.3,0.2-0.5c0-0.1,0-0.1,0-0.2c0-0.3,0-0.5-0.1-0.7l-0.6-0.8
	c-0.1-0.1-0.1-0.1-0.1-0.2l0-0.4c0-0.1,0.1-0.3,0.2-0.3c0.1-0.1,0.3-0.1,0.4,0l1,0.4c0.1,0.1,0.2,0.2,0.2,0.3l0.1,0.4l0.6,0.2
	c0.2,0.1,0.3,0.2,0.3,0.4v0.2C28.3,21,28.1,21.1,27.9,21.1"/>
<path class="st1" d="M91.1,17.6L91.1,17.6c0-1.5,1.1-2.9,2.8-2.9c0.9,0,1.5,0.3,2.1,0.7l-0.4,0.5c-0.4-0.4-0.9-0.6-1.7-0.6
	c-1.2,0-2.1,1-2.1,2.3v0c0,1.3,0.9,2.3,2.2,2.3c0.6,0,1.2-0.2,1.6-0.6v-1.4h-1.7v-0.6h2.3v2.2c-0.5,0.5-1.3,0.9-2.2,0.9
	C92.1,20.4,91.1,19.2,91.1,17.6"/>
<path class="st1" d="M98.2,17.6L98.2,17.6c0-1.6,1.2-2.9,2.8-2.9c1.7,0,2.8,1.3,2.8,2.9v0c0,1.5-1.2,2.9-2.8,2.9
	C99.3,20.4,98.2,19.1,98.2,17.6 M103.2,17.6L103.2,17.6c0-1.3-0.9-2.3-2.2-2.3c-1.3,0-2.2,1-2.2,2.3v0c0,1.3,0.9,2.3,2.2,2.3
	C102.3,19.9,103.2,18.8,103.2,17.6"/>
<path class="st1" d="M106.1,14.8h2.4c0.6,0,1.1,0.2,1.5,0.5c0.2,0.2,0.4,0.5,0.4,0.9v0c0,0.7-0.4,1.1-0.9,1.3
	c0.7,0.2,1.2,0.6,1.2,1.3v0c0,1-0.8,1.5-2,1.5h-2.5V14.8z M109.7,16.2c0-0.5-0.4-0.9-1.2-0.9h-1.7v1.9h1.6
	C109.1,17.3,109.7,16.9,109.7,16.2L109.7,16.2z M108.5,17.8h-1.8v2h1.9c0.8,0,1.4-0.4,1.4-1v0C110,18.2,109.5,17.8,108.5,17.8"/>
<rect x="112.9" y="14.8" class="st1" width="0.6" height="5.6"/>
<polygon class="st1" points="116,14.8 120.1,14.8 120.1,15.3 116.7,15.3 116.7,17.2 119.7,17.2 119.7,17.8 116.7,17.8 116.7,19.8 
	120.1,19.8 120.1,20.3 116,20.3 "/>
<path class="st1" d="M122.2,14.8h2.4c0.7,0,1.2,0.2,1.6,0.6c0.3,0.3,0.4,0.7,0.4,1.1v0c0,0.9-0.6,1.5-1.5,1.6l1.7,2.3H126l-1.6-2.2
	h-1.6v2.2h-0.6V14.8z M124.5,17.6c0.8,0,1.4-0.4,1.4-1.1v0c0-0.7-0.5-1.1-1.4-1.1h-1.7v2.3H124.5z"/>
<polygon class="st1" points="128.8,14.8 129.4,14.8 132.9,19.2 132.9,14.8 133.6,14.8 133.6,20.3 133.1,20.3 129.5,15.8 129.5,20.3 
	128.8,20.3 "/>
<path class="st1" d="M135.8,17.6L135.8,17.6c0-1.6,1.2-2.9,2.8-2.9c1.7,0,2.8,1.3,2.8,2.9v0c0,1.5-1.2,2.9-2.8,2.9
	C136.9,20.4,135.8,19.1,135.8,17.6 M140.8,17.6L140.8,17.6c0-1.3-0.9-2.3-2.2-2.3c-1.3,0-2.2,1-2.2,2.3v0c0,1.3,0.9,2.3,2.2,2.3
	C139.9,19.9,140.8,18.8,140.8,17.6"/>
<path class="st1" d="M146.6,14.8h1.9c1.7,0,3,1.2,3,2.8v0c0,1.6-1.2,2.8-3,2.8h-1.9V14.8z M147.3,15.4v4.4h1.3c1.4,0,2.3-1,2.3-2.2
	v0c0-1.2-0.9-2.2-2.3-2.2H147.3z"/>
<polygon class="st1" points="153.5,14.8 157.5,14.8 157.5,15.3 154.1,15.3 154.1,17.2 157.2,17.2 157.2,17.8 154.1,17.8 154.1,19.8 
	157.6,19.8 157.6,20.3 153.5,20.3 "/>
<polygon class="st1" points="162.6,14.8 163.2,14.8 163.2,19.8 166.3,19.8 166.3,20.3 162.6,20.3 "/>
<path class="st1" d="M170.2,14.7h0.6l2.5,5.6h-0.7l-0.7-1.5h-3l-0.7,1.5h-0.6L170.2,14.7z M171.7,18.3l-1.3-2.8l-1.3,2.8H171.7z"/>
<path class="st1" d="M90.9,27.1L90.9,27.1c0-1.6,1.2-2.9,2.9-2.9c1,0,1.7,0.4,2.2,0.9L95.3,26c-0.4-0.4-0.9-0.6-1.4-0.6
	c-0.9,0-1.6,0.8-1.6,1.7v0c0,1,0.7,1.7,1.6,1.7c0.6,0,1-0.3,1.5-0.7l0.8,0.8c-0.6,0.6-1.2,1-2.3,1C92.2,30,90.9,28.7,90.9,27.1"/>
<rect x="97.1" y="24.3" class="st1" width="1.2" height="5.6"/>
<path class="st1" d="M99.7,27.5v-3.2h1.2v3.1c0,0.9,0.5,1.4,1.2,1.4s1.2-0.5,1.2-1.3v-3.2h1.2v3.1c0,1.7-0.9,2.5-2.4,2.5
	C100.6,30,99.7,29.1,99.7,27.5"/>
<path class="st1" d="M106,24.3h2.2c1.7,0,3,1.2,3,2.8v0c0,1.6-1.2,2.8-3,2.8H106V24.3z M108.1,28.8c1,0,1.7-0.7,1.7-1.7v0
	c0-1-0.7-1.7-1.7-1.7h-0.9v3.4H108.1z"/>
<path class="st1" d="M113.8,24.3h1.1l2.4,5.6h-1.3l-0.5-1.2h-2.4l-0.5,1.2h-1.2L113.8,24.3z M115.1,27.6l-0.7-1.8l-0.7,1.8H115.1z"
	/>
<path class="st1" d="M118.2,24.3h2.2c1.7,0,3,1.2,3,2.8v0c0,1.6-1.2,2.8-3,2.8h-2.2V24.3z M120.4,28.8c1,0,1.7-0.7,1.7-1.7v0
	c0-1-0.7-1.7-1.7-1.7h-0.9v3.4H120.4z"/>
<path class="st1" d="M126.9,24.3h2.2c1.7,0,3,1.2,3,2.8v0c0,1.6-1.2,2.8-3,2.8h-2.2V24.3z M129.1,28.8c1,0,1.7-0.7,1.7-1.7v0
	c0-1-0.7-1.7-1.7-1.7h-0.9v3.4H129.1z"/>
<polygon class="st1" points="133.2,24.3 137.4,24.3 137.4,25.4 134.4,25.4 134.4,26.5 137,26.5 137,27.6 134.4,27.6 134.4,28.8 
	137.4,28.8 137.4,29.9 133.2,29.9 "/>
<polygon class="st1" points="141,24.3 142.3,24.3 143.8,26.7 145.2,24.3 146.6,24.3 146.6,29.9 145.3,29.9 145.3,26.3 143.8,28.6 
	143.7,28.6 142.2,26.3 142.2,29.9 141,29.9 "/>
<path class="st1" d="M148,24.3h4.2v1.1h-3v1.1h2.6v1.1h-2.6v1.2h3v1.1H148V24.3z M150.3,22.5l1,0.5l-1,1h-0.9L150.3,22.5z"/>
<polygon class="st1" points="155,27.1 153.1,24.3 154.5,24.3 155.7,26.1 156.9,24.3 158.3,24.3 156.4,27 158.4,29.9 156.9,29.9 
	155.7,28 154.4,29.9 153,29.9 "/>
<rect x="159.3" y="24.3" class="st1" width="1.2" height="5.6"/>
<path class="st1" d="M161.7,27.1L161.7,27.1c0-1.6,1.2-2.9,2.9-2.9c1,0,1.7,0.4,2.2,0.9L166,26c-0.4-0.4-0.9-0.6-1.4-0.6
	c-0.9,0-1.6,0.8-1.6,1.7v0c0,1,0.7,1.7,1.6,1.7c0.6,0,1-0.3,1.5-0.7l0.8,0.8c-0.6,0.6-1.2,1-2.3,1C162.9,30,161.7,28.7,161.7,27.1"
	/>
<path class="st1" d="M167.4,27.1L167.4,27.1c0-1.6,1.2-2.9,3-2.9c1.7,0,3,1.3,3,2.9v0c0,1.6-1.2,2.9-3,2.9
	C168.7,30,167.4,28.7,167.4,27.1 M172.1,27.1L172.1,27.1c0-1-0.7-1.8-1.7-1.8c-1,0-1.7,0.8-1.7,1.7v0c0,1,0.7,1.7,1.7,1.7
	C171.4,28.9,172.1,28.1,172.1,27.1"/>
</svg>
